<?xml version="1.0" encoding="UTF-8"?>
<svg width="155px" height="29px" viewBox="0 0 155 29" version="1.1" xmlns="http://www.w3.org/2000/svg" xmlns:xlink="http://www.w3.org/1999/xlink">
    <!-- Generator: Sketch 42 (36781) - http://www.bohemiancoding.com/sketch -->
    <title>Nav 1 Light Copy 14</title>
    <desc>Created with Sketch.</desc>
    <defs></defs>
    <g id="Symbols" stroke="none" stroke-width="1" fill="none" fill-rule="evenodd">
        <g id="Nav" transform="translate(-120.000000, -32.000000)">
            <g id="Nav-1-Light-Copy-14">
                <g transform="translate(120.000000, 32.000000)">
                    <g id="Logo" transform="translate(0.000000, -0.000000)">
                        <path d="M6.76619506,12.7034442 C9.80144713,12.7034442 12.4889908,11.4028379 12.4889908,7.78617125 C12.4889908,4.32858474 10.2122091,2.8693567 6.98733942,2.8693567 L2.65583414,2.8693567 L2.65583414,12.7034442 L6.76619506,12.7034442 Z M-0.000182763936,0.458398403 L7.55664908,0.458398403 C12.4259372,0.458398403 15.3346253,3.21869122 15.3346253,7.81826235 C15.3346253,12.5448225 11.9196811,15.114861 7.17695701,15.114861 L2.65583414,15.114861 L2.65583414,24.3144617 L-0.000182763936,24.3144617 L-0.000182763936,0.458398403 Z" id="Fill-1" fill="#686767"></path>
                        <path d="M17.4625001,8.45256581 L19.865389,8.45256581 L19.865389,11.9422434 L19.9284425,11.9422434 C20.5608057,10.2606699 21.8255322,8.1985877 24.4815491,8.1985877 L25.3670403,8.1985877 L25.3670403,10.8002588 L24.5765863,10.8002588 C21.3512598,10.8002588 19.9284425,13.0209627 19.9284425,16.76416 L19.9284425,24.3142783 L17.4625001,24.3142783 L17.4625001,8.45256581 Z" id="Fill-4" fill="#686767"></path>
                        <path d="M33.7774255,22.5378527 C37.1923696,22.5378527 39.2786199,19.9682727 39.2786199,16.3836971 C39.2786199,12.7986631 37.1923696,10.2290831 33.7774255,10.2290831 C30.3624813,10.2290831 28.2757741,12.7986631 28.2757741,16.3836971 C28.2757741,19.9682727 30.3624813,22.5378527 33.7774255,22.5378527 M33.7774255,24.7585566 C28.0546297,24.7585566 25.6197572,20.6027595 25.6197572,16.3836971 C25.6197572,12.1646347 28.4653917,8.00837918 33.7774255,8.00837918 C39.5002212,8.00837918 41.9346368,12.1646347 41.9346368,16.3836971 C41.9346368,20.6027595 39.0890024,24.7585566 33.7774255,24.7585566" id="Fill-6" fill="#686767"></path>
                        <path d="M53.8421642,13.1793552 C53.7156002,11.7201272 52.7355285,10.228808 49.9534045,10.228808 C47.7086065,10.228808 46.1592252,11.1809967 46.1592252,12.7034901 C46.1592252,14.2264419 47.3604412,14.9246525 50.3011129,15.4005176 C54.3479634,16.0666371 56.6562719,17.0495416 56.6562719,19.9368234 C56.6562719,22.2519669 54.8857463,24.7582816 49.9534045,24.7582816 C44.9260256,24.7582816 43.5347351,22.2519669 43.2500803,19.6512127 L45.7164796,19.6512127 C45.8115168,20.9834516 46.7596047,22.5380361 49.8898941,22.5380361 C52.3562934,22.5380361 54.2218563,21.6816622 54.1898726,20.0638125 C54.1583458,18.7943804 53.3678918,18.2552499 49.4156216,17.5891304 C46.2222788,17.0495416 43.6928259,16.0029133 43.6928259,12.9574682 C43.6928259,9.88039042 46.3488428,8.00856256 50.1745489,8.00856256 C53.7156002,8.00856256 56.3085635,10.0706448 56.3085635,13.1793552 L53.8421642,13.1793552 Z" id="Fill-8" fill="#686767"></path>
                        <polygon id="Fill-10" fill="#686767" points="61.4938505 15.9712348 61.4938505 24.3144617 59.0274512 24.3144617 59.0274512 0.458398403 61.4938505 0.458398403 61.4938505 15.4637371 68.5764099 8.45274919 71.9593704 8.45274919 64.3079582 15.6856241 72.0859344 24.3144617 68.6394635 24.3144617"></polygon>
                        <path d="M83.3416342,16.7958844 L79.1677628,16.9861387 C76.480676,17.1131278 74.899768,17.8434295 74.899768,19.9055117 C74.899768,21.4912703 76.2595317,22.7286114 78.5038728,22.7286114 C80.6545474,22.7286114 83.3416342,21.5224445 83.3416342,18.7626102 L83.3416342,16.7958844 Z M83.3416342,22.2206551 L83.2781237,22.2206551 C82.1714881,24.1878394 79.8005829,24.7586025 77.9665468,24.7586025 C74.2043512,24.7586025 72.2437511,22.5378986 72.2437511,20.0315839 C72.2437511,17.1131278 73.8246591,15.4003801 78.1566213,15.178493 C79.8951633,15.0831366 81.6030922,14.9877802 83.3416342,14.9245149 L83.3416342,13.7188066 C83.3416342,11.688357 82.4885835,10.0388746 79.3267674,10.0388746 C76.4176225,10.0388746 75.4690776,11.2762156 75.152896,13.0526871 L72.7180235,13.0526871 C73.2242796,9.49974416 75.6271684,8.00842502 79.3578373,8.00842502 C83.5952192,8.00842502 85.8080335,9.94397663 85.8080335,13.3382978 L85.8080335,21.2056596 C85.8080335,22.188564 85.9341406,23.4259051 86.0296348,24.31437 L83.3416342,24.31437 L83.3416342,22.2206551 Z" id="Fill-13" fill="#686767"></path>
                        <path d="M99.0559516,21.8081012 L98.9924411,21.8081012 C97.9173322,23.8390092 96.2098602,24.7586483 93.965519,24.7586483 C91.6572105,24.7586483 88.6854689,23.5845726 88.6854689,18.8901035 L88.6854689,8.45270334 L91.1509544,8.45270334 L91.1509544,18.223984 C91.1509544,21.5224904 92.8588834,22.5379444 94.629409,22.5379444 C96.9372606,22.5379444 99.0559516,20.7614729 99.0559516,17.4620497 L99.0559516,8.45270334 L101.521437,8.45270334 L101.521437,24.3144159 L99.0559516,24.3144159 L99.0559516,21.8081012 Z" id="Fill-15" fill="#686767"></path>
                        <path d="M116.515802,14.9245149 C116.167636,12.0372331 114.524132,10.229129 111.67804,10.229129 C108.453171,10.229129 106.9673,12.7670763 106.777225,14.9245149 L116.515802,14.9245149 Z M118.760143,19.8417879 C117.401293,22.8546835 115.124511,24.7586025 111.487966,24.7586025 C107.06188,24.7586025 104.057698,21.3963724 104.057698,16.9861387 C104.057698,11.6567243 106.9673,8.00842502 111.61453,8.00842502 C116.104583,8.00842502 119.171818,10.8640742 119.171818,16.2567539 L119.171818,16.9549645 L106.713715,16.9549645 C106.713715,20.634438 108.95897,22.5378986 111.61453,22.5378986 C114.460621,22.5378986 115.693821,20.7614271 116.231147,19.4612792 L118.760143,19.8417879 Z" id="Fill-17" fill="#686767"></path>
                        <path d="M121.400807,8.45256581 L123.804153,8.45256581 L123.804153,11.9422434 L123.866293,11.9422434 C124.499113,10.2606699 125.76384,8.1985877 128.4194,8.1985877 L129.304891,8.1985877 L129.304891,10.8002588 L128.514894,10.8002588 C125.290024,10.8002588 123.866293,13.0209627 123.866293,16.76416 L123.866293,24.3142783 L121.400807,24.3142783 L121.400807,8.45256581 Z" id="Fill-19" fill="#686767"></path>
                        <polygon id="Fill-21" fill="#A2A1A1" points="129.82554 28.5097308 142.646887 15.6499113 129.801323 2.76350192 134.184459 2.76350192 147.031393 15.6499113 134.209589 28.5097308"></polygon>
                        <polygon id="Fill-23" fill="#009CDE" points="137.55819 28.5097308 150.378623 15.6499113 137.533517 2.76350192 141.916653 2.76350192 154.763587 15.6499113 141.942697 28.5097308"></polygon>
                    </g>
                </g>
            </g>
        </g>
    </g>
</svg>